<svg width="24" height="24" viewBox="0 0 24 24" fill="none" xmlns="http://www.w3.org/2000/svg">
<path d="M1.2354 22.7449C2.89276 24.4022 5.35371 24.4625 6.98093 22.5239C8.17625 21.0875 11.1997 16.2158 13.7912 13.6243C15.5189 11.8966 17.4273 12.8107 19.3459 12.0272L17.6383 5.7995C17.4273 5.02607 17.7387 4.38321 18.6327 4.14214L22.3995 3.13768C22.2789 2.78612 21.9475 2.30397 21.5356 1.8821C19.2153 -0.498484 15.3783 -0.528618 13.0881 1.64102C9.74323 4.82518 12.2845 8.19014 10.0847 10.3899C7.31241 13.1522 3.49545 15.1611 1.45638 16.9892C-0.452101 18.6868 -0.442056 21.0673 1.2354 22.7449ZM4.07804 21.1377C3.395 21.1377 2.8325 20.5852 2.8325 19.9022C2.8325 19.2192 3.395 18.6566 4.07804 18.6566C4.76107 18.6566 5.31352 19.2192 5.31352 19.9022C5.31352 20.5852 4.76107 21.1377 4.07804 21.1377ZM13.52 7.71804C13.299 7.7783 13.1082 7.66781 13.0378 7.42674C12.9776 7.24593 13.0981 7.02495 13.309 6.96469L15.6595 6.33188C15.8504 6.28165 16.0713 6.40219 16.1216 6.61312C16.1919 6.84415 16.0613 7.04504 15.8504 7.10531L13.52 7.71804ZM13.8213 8.91331C13.6004 8.97365 13.4095 8.86316 13.3292 8.62205C13.2689 8.44125 13.3995 8.22026 13.6104 8.17004L15.9508 7.52719C16.1416 7.487 16.3626 7.5975 16.4229 7.80843C16.4932 8.03947 16.3526 8.24036 16.1416 8.30062L13.8213 8.91331ZM14.1126 10.1087C13.9017 10.1689 13.6807 10.0584 13.6406 9.81734C13.5903 9.61651 13.7008 9.42562 13.9218 9.36536L16.2521 8.74257C16.4731 8.67228 16.684 8.80282 16.7242 9.00374C16.7745 9.20465 16.6539 9.42562 16.4631 9.47585L14.1126 10.1087ZM20.4508 11.5451C20.8425 11.314 21.2443 11.0127 21.6561 10.6209C22.9218 9.47585 23.5747 7.74817 23.3135 6.52272L20.27 7.35643C19.9285 7.44683 19.6371 7.46692 19.3258 7.41669L20.4508 11.5451Z" fill="#9EFF00"/>
</svg>
