<svg width="24" height="24" viewBox="0 0 24 24" fill="none" xmlns="http://www.w3.org/2000/svg">
<path d="M2.58238 18.7518H21.3759C22.994 18.7518 23.8078 17.9853 23.8078 16.3198V5.47525C23.8078 3.81923 22.994 3.05273 21.3759 3.05273H2.58238C0.964204 3.05273 0.150391 3.81923 0.150391 5.47525V16.3198C0.150391 17.9853 0.964204 18.7518 2.58238 18.7518ZM7.21923 21.9598H16.739C17.1554 21.9598 17.5055 21.6191 17.5055 21.1932C17.5055 20.7674 17.1554 20.4267 16.739 20.4267H7.21923C6.80286 20.4267 6.45273 20.7674 6.45273 21.1932C6.45273 21.6191 6.80286 21.9598 7.21923 21.9598ZM12.4712 14.8247C12.263 14.8247 12.1305 14.7017 12.1021 14.5029C11.6858 11.6545 11.3167 11.0206 8.3264 10.7178C8.12768 10.6893 8.00466 10.5474 8.00466 10.3582C8.00466 10.1784 8.12768 10.0269 8.3264 9.99856C11.3072 9.60111 11.5627 9.08065 12.1021 6.20391C12.1495 6.01464 12.2819 5.89163 12.4712 5.89163C12.651 5.89163 12.7929 6.02411 12.8213 6.21337C13.2472 9.03333 13.6351 9.60111 16.6065 9.99856C16.7958 10.0269 16.9282 10.1784 16.9282 10.3582C16.9282 10.5474 16.7958 10.6893 16.6065 10.7178C13.6257 11.1152 13.3607 11.6545 12.8213 14.5124C12.7834 14.7017 12.651 14.8247 12.4712 14.8247ZM8.62921 16.4239C8.47781 16.4239 8.40214 16.3198 8.35482 16.1684C8.0709 14.7773 8.19392 14.7111 6.66092 14.484C6.50004 14.4556 6.41488 14.361 6.41488 14.2096C6.41488 14.0771 6.50004 13.9635 6.64199 13.9446C8.19392 13.6891 8.0709 13.6228 8.35482 12.2413C8.40214 12.0899 8.48725 11.9858 8.62921 11.9858C8.77117 11.9858 8.86581 12.0993 8.9036 12.2413C9.16863 13.6228 9.07399 13.6891 10.6259 13.9446C10.7584 13.9635 10.853 14.0771 10.853 14.2096C10.853 14.3421 10.7584 14.4556 10.6259 14.484C9.07399 14.7111 9.16863 14.7773 8.9036 16.1968C8.86581 16.3293 8.76173 16.4239 8.62921 16.4239Z" fill="#9EFF00"/>
</svg>
