<svg width="24" height="24" viewBox="0 0 24 24" fill="none" xmlns="http://www.w3.org/2000/svg">
<path d="M2.75851 13.2154C3.3411 13.2154 3.80315 12.7533 3.80315 12.1807C3.80315 11.5981 3.3411 11.1361 2.75851 11.1361C2.17592 11.1361 1.71387 11.5981 1.71387 12.1807C1.71387 12.7533 2.17592 13.2154 2.75851 13.2154ZM5.12905 6.17405C5.71163 6.17405 6.17369 5.70195 6.17369 5.12942C6.17369 4.54682 5.71163 4.08476 5.12905 4.08476C4.5565 4.08476 4.0844 4.54682 4.0844 5.12942C4.0844 5.70195 4.5565 6.17405 5.12905 6.17405ZM12.1905 3.80352C12.763 3.80352 13.225 3.34147 13.225 2.75888C13.225 2.18633 12.763 1.71423 12.1905 1.71423C11.6079 1.71423 11.1458 2.18633 11.1458 2.75888C11.1458 3.34147 11.6079 3.80352 12.1905 3.80352ZM19.2418 6.17405C19.8244 6.17405 20.2864 5.70195 20.2864 5.12942C20.2864 4.54682 19.8244 4.08476 19.2418 4.08476C18.6592 4.08476 18.1972 4.54682 18.1972 5.12942C18.1972 5.70195 18.6592 6.17405 19.2418 6.17405ZM21.6224 13.2154C22.1949 13.2154 22.657 12.7533 22.657 12.1807C22.657 11.5981 22.1949 11.1361 21.6224 11.1361C21.0398 11.1361 20.5777 11.5981 20.5777 12.1807C20.5777 12.7533 21.0398 13.2154 21.6224 13.2154ZM19.9048 20.6082C20.3467 20.6082 20.7284 20.2466 20.7284 19.8047C20.7284 19.3526 20.3467 18.9809 19.9048 18.9809H18.6793V12.3214C18.6793 8.65509 15.8467 5.82249 12.1905 5.82249C8.52413 5.82249 5.71163 8.65509 5.71163 12.3214V18.9809H4.4661C4.02413 18.9809 3.67258 19.3526 3.67258 19.8047C3.67258 20.2466 4.02413 20.6082 4.4661 20.6082H19.9048ZM13.0342 12.3515V18.9809H11.3567V12.3515C11.3567 11.8895 11.7284 11.5078 12.1905 11.5078C12.6525 11.5078 13.0342 11.8895 13.0342 12.3515Z" fill="#9EFF00"/>
</svg>
