<svg width="24" height="24" viewBox="0 0 24 24" fill="none" xmlns="http://www.w3.org/2000/svg">
<g clip-path="url(#clip0_92_59779)">
<g clip-path="url(#clip1_92_59779)">
<path d="M3.59673 11.4299C3.81573 11.4046 4.04316 11.3878 4.26216 11.3878C4.49801 11.3878 4.72544 11.4046 4.95287 11.4383V9.60205H3.59673V11.4299ZM3.59673 8.44808H4.95287V6.68762C4.95287 5.81161 5.41615 5.36518 6.25847 5.36518H8.00208V4.00903H6.24162C4.48117 4.00903 3.59673 4.87663 3.59673 6.62024V8.44808ZM9.15608 5.36518H12.9549V4.00903H9.15608V5.36518ZM14.1005 5.36518H17.8994V4.00903H14.1005V5.36518ZM23.4587 8.44808V6.62024C23.4587 4.87663 22.5743 4.00903 20.8138 4.00903H19.0534V5.36518H20.797C21.6393 5.36518 22.1026 5.81161 22.1026 6.68762V8.44808H23.4587ZM23.4587 13.9232V9.60205H22.1026V13.9232H23.4587ZM20.8138 19.5162C22.5743 19.5162 23.4587 18.6487 23.4587 16.905V15.0772H22.1026V16.8376C22.1026 17.7137 21.6393 18.1601 20.797 18.1601H19.0534V19.5162H20.8138ZM14.1005 19.5162H17.8994V18.1601H14.1005V19.5162ZM8.9876 19.5078L12.9549 19.5162V18.1601H9.51828C9.40874 18.6403 9.23191 19.0866 8.9876 19.5078ZM4.27901 21.1082C6.62067 21.1082 8.55798 19.1709 8.55798 16.8292C8.55798 14.496 6.61225 12.5502 4.27059 12.5502C1.93735 12.5502 0 14.496 0 16.8292C0 19.1709 1.94577 21.1082 4.27901 21.1082ZM4.27901 20.0974C2.46801 20.0974 1.01921 18.6403 1.01921 16.8292C1.01921 15.0266 2.46801 13.561 4.27059 13.561C6.08159 13.561 7.53882 15.0266 7.54723 16.8292C7.55564 18.6403 6.08159 20.0974 4.27901 20.0974ZM4.27059 19.3646C5.66885 19.3646 6.80598 18.219 6.80598 16.8376C6.80598 15.4478 5.66042 14.3022 4.27059 14.3022C2.88075 14.3022 1.74361 15.4478 1.74361 16.8376C1.74361 18.219 2.88917 19.3646 4.27059 19.3646Z" fill="#9EFF00"/>
</g>
</g>
<defs>
<clipPath id="clip0_92_59779">
<rect width="24" height="24" fill="white"/>
</clipPath>
<clipPath id="clip1_92_59779">
<rect width="23.4587" height="18.708" fill="white" transform="translate(0 2.40015)"/>
</clipPath>
</defs>
</svg>
