<svg width="24" height="24" viewBox="0 0 24 24" fill="none" xmlns="http://www.w3.org/2000/svg">
<path d="M0.857422 20.4709C0.857422 20.953 1.17885 21.2644 1.66099 21.2644H21.6398C22.0817 21.2644 22.4534 20.9128 22.4534 20.4609C22.4534 20.0189 22.0817 19.6573 21.6398 19.6573H2.75586C2.54492 19.6573 2.47461 19.587 2.47461 19.3761V3.49546C2.47461 3.06355 2.113 2.69189 1.67104 2.69189C1.21903 2.69189 0.857422 3.06355 0.857422 3.49546V20.4709ZM1.91211 14.2232L8.37081 10.4865L13.0215 14.4742L21.2882 9.55238L20.6555 8.52783L13.1019 13.0278L8.47126 9.0602L1.91211 12.847V14.2232ZM8.24023 11.8426C9.22461 11.8426 10.0282 11.039 10.0282 10.0546C10.0282 9.07024 9.22461 8.27672 8.24023 8.27672C7.25586 8.27672 6.45229 9.07024 6.45229 10.0546C6.45229 11.039 7.25586 11.8426 8.24023 11.8426ZM12.9813 15.529C13.9657 15.529 14.7593 14.7254 14.7593 13.741C14.7593 12.7566 13.9657 11.9631 12.9813 11.9631C11.9969 11.9631 11.1934 12.7566 11.1934 13.741C11.1934 14.7254 11.9969 15.529 12.9813 15.529ZM20.555 10.9586C21.5393 10.9586 22.3429 10.1551 22.3429 9.17069C22.3429 8.18631 21.5393 7.38274 20.555 7.38274C19.5706 7.38274 18.767 8.18631 18.767 9.17069C18.767 10.1551 19.5706 10.9586 20.555 10.9586Z" fill="#9EFF00"/>
</svg>
