<svg width="24" height="24" viewBox="0 0 24 24" fill="none" xmlns="http://www.w3.org/2000/svg">
<path d="M15.6292 11.0999C16.1935 11.0999 16.6217 10.5806 16.3939 10.0643C15.6497 8.37739 13.9624 7.19995 12.0002 7.19995C11.8247 7.19995 11.6514 7.20937 11.4808 7.22772C10.9193 7.28813 10.6832 7.9188 10.9655 8.40786L12.26 10.6499C12.4208 10.9284 12.7179 11.0999 13.0394 11.0999L15.6292 11.0999Z" fill="#9EFF00"/>
<path d="M9.40757 9.30937C9.12513 8.82017 8.46052 8.70928 8.12652 9.16485C7.54412 9.95925 7.2002 10.9394 7.2002 12C7.2002 13.0605 7.54414 14.0407 8.12658 14.8351C8.46057 15.2907 9.12518 15.1798 9.40762 14.6906L10.7012 12.45C10.862 12.1716 10.862 11.8285 10.7012 11.55L9.40757 9.30937Z" fill="#9EFF00"/>
<path d="M10.9656 15.5921C10.6833 16.0811 10.9194 16.7118 11.4809 16.7722C11.6515 16.7905 11.8247 16.8 12.0002 16.8C13.9624 16.8 15.6497 15.6225 16.3939 13.9356C16.6217 13.4193 16.1935 12.8999 15.6292 12.8999H13.0395C12.718 12.8999 12.4209 13.0715 12.2601 13.3499L10.9656 15.5921Z" fill="#9EFF00"/>
<path fill-rule="evenodd" clip-rule="evenodd" d="M16.9556 5.21664L17.7295 3.87628C17.978 3.44582 17.8305 2.89539 17.4001 2.64686C16.9696 2.39833 16.4192 2.54582 16.1706 2.97628L15.3975 4.31533C14.62 3.97107 13.7804 3.74136 12.9002 3.6476V2.09995C12.9002 1.60289 12.4973 1.19995 12.0002 1.19995C11.5031 1.19995 11.1002 1.60289 11.1002 2.09995V3.6476C10.22 3.74136 9.38039 3.97107 8.60283 4.31534L7.82974 2.97631C7.58122 2.54585 7.03079 2.39836 6.60032 2.64689C6.16986 2.89542 6.02237 3.44585 6.2709 3.87631L7.04474 5.21665C6.3456 5.72827 5.72851 6.34536 5.21689 7.04451L3.8763 6.27051C3.44583 6.02198 2.8954 6.16947 2.64688 6.59994C2.39835 7.0304 2.54583 7.58083 2.9763 7.82936L4.31558 8.60259C3.97132 9.38015 3.7416 10.2197 3.64784 11.1H2.1002C1.60314 11.1 1.2002 11.5029 1.2002 12C1.2002 12.497 1.60314 12.9 2.1002 12.9H3.64784C3.7416 13.7802 3.97131 14.6197 4.31557 15.3973L2.9763 16.1705C2.54583 16.419 2.39835 16.9695 2.64688 17.3999C2.8954 17.8304 3.44583 17.9779 3.8763 17.7294L5.21688 16.9554C5.72845 17.6545 6.34549 18.2715 7.04457 18.7831L6.27065 20.1236C6.02212 20.5541 6.16961 21.1045 6.60007 21.353C7.03053 21.6015 7.58096 21.4541 7.82949 21.0236L8.60263 19.6845C9.38025 20.0288 10.2199 20.2585 11.1002 20.3523V21.9C11.1002 22.397 11.5031 22.8 12.0002 22.8C12.4973 22.8 12.9002 22.397 12.9002 21.9V20.3523C13.7805 20.2585 14.6201 20.0288 15.3977 19.6845L16.1709 21.0236C16.4194 21.4541 16.9699 21.6016 17.4003 21.353C17.8308 21.1045 17.9783 20.5541 17.7297 20.1236L16.9558 18.7831C17.6549 18.2715 18.2719 17.6545 18.7835 16.9555L20.1239 17.7294C20.5544 17.9779 21.1048 17.8304 21.3533 17.3999C21.6019 16.9695 21.4544 16.419 21.0239 16.1705L19.6848 15.3974C20.0291 14.6198 20.2588 13.7802 20.3525 12.9H21.9002C22.3973 12.9 22.8002 12.497 22.8002 12C22.8002 11.5029 22.3973 11.1 21.9002 11.1H20.3525C20.2588 10.2197 20.0291 9.38009 19.6848 8.6025L21.0239 7.82936C21.4544 7.58083 21.6019 7.0304 21.3533 6.59994C21.1048 6.16947 20.5544 6.02198 20.1239 6.27051L18.7834 7.04443C18.2718 6.34531 17.6548 5.72824 16.9556 5.21664ZM12.0002 5.39995C10.8136 5.39995 9.7002 5.71307 8.73803 6.2612C8.72571 6.26912 8.71314 6.27679 8.70032 6.28419C8.68793 6.29135 8.67544 6.29817 8.66286 6.30467C7.68821 6.87703 6.8735 7.69244 6.30198 8.66763C6.29629 8.67847 6.29036 8.68924 6.28418 8.69994C6.27776 8.71106 6.27113 8.722 6.26431 8.73274C5.71441 9.69607 5.4002 10.8113 5.4002 12C5.4002 13.1885 5.71434 14.3036 6.26414 15.2668C6.27102 15.2777 6.2777 15.2887 6.28418 15.2999C6.29041 15.3107 6.2964 15.3216 6.30213 15.3325C6.87403 16.3083 7.68938 17.124 8.66479 17.6964C8.67663 17.7025 8.6884 17.709 8.70007 17.7157C8.7122 17.7227 8.7241 17.73 8.73577 17.7374C9.69846 18.2863 10.8127 18.6 12.0002 18.6C13.1879 18.6 14.3022 18.2863 15.265 17.7372C15.2766 17.7298 15.2883 17.7227 15.3003 17.7157C15.3119 17.7091 15.3235 17.7027 15.3352 17.6966C16.3098 17.1248 17.1246 16.3101 17.6965 15.3355C17.7027 15.3236 17.7092 15.3117 17.716 15.2999C17.7231 15.2877 17.7304 15.2757 17.7379 15.264C18.2867 14.3014 18.6002 13.1873 18.6002 12C18.6002 10.8125 18.2866 9.6983 17.7377 8.73564C17.7303 8.72396 17.723 8.71206 17.716 8.69994C17.7093 8.68825 17.7028 8.67648 17.6967 8.66463C17.1251 7.69064 16.311 6.87623 15.3371 6.30445C15.3247 6.29801 15.3123 6.29125 15.3001 6.28417C15.2874 6.27684 15.2749 6.26925 15.2627 6.2614C14.3005 5.71315 13.1869 5.39995 12.0002 5.39995Z" fill="#9EFF00"/>
</svg>
