<svg width="24" height="24" viewBox="0 0 24 24" fill="none" xmlns="http://www.w3.org/2000/svg">
<path fill-rule="evenodd" clip-rule="evenodd" d="M7.53679 6.26365C7.88826 6.61512 7.88826 7.18497 7.53679 7.53644L3.07318 12L7.53679 16.4637C7.88826 16.8151 7.88826 17.385 7.53679 17.7364C7.18532 18.0879 6.61547 18.0879 6.26399 17.7364L1.16399 12.6364C0.812523 12.285 0.812523 11.7151 1.16399 11.3637L6.26399 6.26365C6.61547 5.91218 7.18532 5.91218 7.53679 6.26365ZM16.464 6.26365C16.8155 5.91218 17.3853 5.91218 17.7368 6.26365L22.8368 11.3637C23.1883 11.7151 23.1883 12.285 22.8368 12.6364L17.7368 17.7364C17.3853 18.0879 16.8155 18.0879 16.464 17.7364C16.1125 17.385 16.1125 16.8151 16.464 16.4637L20.9276 12L16.464 7.53644C16.1125 7.18497 16.1125 6.61512 16.464 6.26365Z" fill="#9EFF00"/>
<path fill-rule="evenodd" clip-rule="evenodd" d="M13.6533 2.41313C14.1431 2.49759 14.4718 2.96314 14.3873 3.45296L11.3873 20.853C11.3029 21.3428 10.8373 21.6714 10.3475 21.587C9.85765 21.5025 9.52902 21.037 9.61348 20.5471L12.6135 3.14713C12.6979 2.6573 13.1635 2.32868 13.6533 2.41313Z" fill="#9EFF00"/>
</svg>
