<svg width="24" height="24" viewBox="0 0 24 24" fill="none" xmlns="http://www.w3.org/2000/svg">
<path d="M20.1229 14.1093V6.42515C20.1229 5.37046 19.6709 5.02895 18.8171 4.67738C17.6318 4.19524 13.8049 2.73877 12.6196 2.39725C12.3483 2.32694 12.0571 2.24658 11.7758 2.24658C11.4946 2.24658 11.2033 2.30685 10.9421 2.39725C9.74679 2.80908 5.91978 4.1852 4.73452 4.67738C3.89076 5.039 3.42871 5.37046 3.42871 6.42515V14.1093C3.42871 17.7756 5.38742 19.1316 11.1028 22.3359C11.364 22.4765 11.6151 22.5368 11.7758 22.5368C11.9365 22.5368 12.1977 22.4765 12.4488 22.3359C18.1542 19.1216 20.1229 17.7756 20.1229 14.1093ZM11.5649 20.6785C11.4443 20.6483 11.3138 20.578 11.153 20.4776C6.52246 17.6551 5.02581 16.8414 5.02581 13.7376V6.73654C5.02581 6.39502 5.08607 6.2544 5.36733 6.15395C6.92424 5.62158 9.85728 4.55685 11.374 3.95417C11.4544 3.92403 11.5146 3.90395 11.5649 3.8939V20.6785Z" fill="#9EFF00"/>
</svg>
