<svg width="26" height="26" viewBox="0 0 26 26" fill="none" xmlns="http://www.w3.org/2000/svg">
<path d="M5.74455 18.0844L6.01051 19.1482C6.34739 20.5313 7.08322 21.2405 8.54599 21.2405H18.0939C19.5656 21.2405 20.2925 20.549 20.6383 19.1482L20.9043 18.0844H5.74455ZM5.452 16.8698H21.2057L22.8723 10.0436L22.1454 9.6269L18.0585 12.6056C17.757 12.8184 17.5532 12.7386 17.3847 12.4993L13.5372 6.68362L13.1116 6.66588L9.22862 12.5258C9.07792 12.7563 8.90061 12.8273 8.59918 12.6145L4.59206 9.68895L3.74099 9.91059L5.452 16.8698ZM4.06901 11.8166C5.23923 11.8166 6.17895 10.868 6.17895 9.68895C6.17895 8.53647 5.23923 7.57901 4.06901 7.57901C2.89879 7.57901 1.9502 8.5276 1.9502 9.68895C1.9502 10.868 2.90765 11.8166 4.06901 11.8166ZM13.3244 8.12866C14.4858 8.12866 15.4343 7.18007 15.4343 6.00985C15.4343 4.85735 14.4858 3.8999 13.3244 3.8999C12.1453 3.8999 11.2056 4.84849 11.2056 6.00985C11.2056 7.18007 12.1542 8.12866 13.3244 8.12866ZM22.5709 11.8166C23.7323 11.8166 24.6897 10.868 24.6897 9.68895C24.6897 8.5276 23.7412 7.57901 22.5709 7.57901C21.4096 7.57901 20.461 8.53647 20.461 9.68895C20.461 10.868 21.4096 11.8166 22.5709 11.8166Z" fill="#9EFF00"/>
</svg>
