<svg width="26" height="26" viewBox="0 0 26 26" fill="none" xmlns="http://www.w3.org/2000/svg">
<path d="M13.2361 24.9821C16.9312 24.9821 19.9124 22.0008 19.9124 18.3163C19.9124 14.6212 16.9312 11.64 13.2361 11.64C9.5515 11.64 6.57025 14.6212 6.57025 18.3163C6.57025 22.0008 9.5515 24.9821 13.2361 24.9821ZM11.336 21.7489C10.9371 22.0428 10.5173 21.7384 10.6747 21.2765L11.4305 19.0195L9.49901 17.6444C9.13161 17.3715 9.24707 16.8571 9.75094 16.8571L12.1233 16.8781L12.8477 14.6107C12.9946 14.1488 13.4985 14.1488 13.6455 14.6107L14.3698 16.8781L16.7421 16.8571C17.246 16.8571 17.351 17.382 16.9941 17.6339L15.0626 19.0195L15.8184 21.2765C15.9759 21.7384 15.556 22.0428 15.1571 21.7489L13.2466 20.3527L11.336 21.7489ZM6.84318 13.3195C7.87192 12.0178 9.28906 11.0311 10.9161 10.5482L6.16085 2.00337L3.40005 6.21281C3.2111 6.48574 3.2006 6.79017 3.36856 7.06309L6.84318 13.3195ZM10.8847 6.96861H15.598L18.7996 1.30005H7.68297L10.8847 6.96861ZM15.5664 10.5482C17.2041 11.0311 18.6107 12.0178 19.6394 13.3195L23.1245 7.06309C23.282 6.79017 23.2715 6.48574 23.0826 6.21281L20.3217 2.00337L15.5664 10.5482Z" fill="#9EFF00"/>
</svg>
